<svg xmlns="http://www.w3.org/2000/svg" width="960" height="420" viewBox="0 0 960 420">
<rect width="100%" height="100%" fill="#ffffff"/>
<style>text{font-family:Inter,Arial,sans-serif;fill:#142033} .muted{fill:#5d6878} .axis{stroke:#d7dde7;stroke-width:1} .grid{stroke:#eef2f7;stroke-width:1} .blue{fill:#2f6fc9} .cyan{fill:#168aad} .green{fill:#2d8a63} .amber{fill:#c47b20} .red{fill:#be3a3a} .line{fill:none;stroke-width:3;stroke-linejoin:round;stroke-linecap:round}</style>
<text x="28" y="34" font-size="22" font-weight="800">售空前延迟分布</text>
<line class="grid" x1="72" y1="72.0" x2="932" y2="72.0"/>
<text class="muted" x="18" y="77.0" font-size="13">378</text>
<line class="grid" x1="72" y1="142.5" x2="932" y2="142.5"/>
<text class="muted" x="18" y="147.5" font-size="13">284</text>
<line class="grid" x1="72" y1="213.0" x2="932" y2="213.0"/>
<text class="muted" x="18" y="218.0" font-size="13">189</text>
<line class="grid" x1="72" y1="283.5" x2="932" y2="283.5"/>
<text class="muted" x="18" y="288.5" font-size="13">94</text>
<line class="grid" x1="72" y1="354.0" x2="932" y2="354.0"/>
<text class="muted" x="18" y="359.0" font-size="13">0</text>
<rect class="blue" x="79.9" y="322.7" width="55.9" height="31.3" rx="3"/>
<text x="107.8" y="316.7" font-size="11" text-anchor="middle">42</text>
<text class="muted" x="107.8" y="386" font-size="10" text-anchor="middle" transform="rotate(-35 107.8,386)">0-250</text>
<rect class="blue" x="151.6" y="115.3" width="55.9" height="238.7" rx="3"/>
<text x="179.5" y="109.3" font-size="11" text-anchor="middle">320</text>
<text class="muted" x="179.5" y="386" font-size="10" text-anchor="middle" transform="rotate(-35 179.5,386)">250-500</text>
<rect class="blue" x="223.2" y="72.0" width="55.9" height="282.0" rx="3"/>
<text x="251.2" y="66.0" font-size="11" text-anchor="middle">378</text>
<text class="muted" x="251.2" y="386" font-size="10" text-anchor="middle" transform="rotate(-35 251.2,386)">500-750</text>
<rect class="blue" x="294.9" y="163.8" width="55.9" height="190.2" rx="3"/>
<text x="322.8" y="157.8" font-size="11" text-anchor="middle">255</text>
<text class="muted" x="322.8" y="386" font-size="10" text-anchor="middle" transform="rotate(-35 322.8,386)">750-1000</text>
<rect class="blue" x="366.6" y="199.6" width="55.9" height="154.4" rx="3"/>
<text x="394.5" y="193.6" font-size="11" text-anchor="middle">207</text>
<text class="muted" x="394.5" y="386" font-size="10" text-anchor="middle" transform="rotate(-35 394.5,386)">1000-1250</text>
<rect class="blue" x="438.2" y="260.0" width="55.9" height="94.0" rx="3"/>
<text x="466.2" y="254.0" font-size="11" text-anchor="middle">126</text>
<text class="muted" x="466.2" y="386" font-size="10" text-anchor="middle" transform="rotate(-35 466.2,386)">1250-1500</text>
<rect class="blue" x="509.9" y="280.9" width="55.9" height="73.1" rx="3"/>
<text x="537.8" y="274.9" font-size="11" text-anchor="middle">98</text>
<text class="muted" x="537.8" y="386" font-size="10" text-anchor="middle" transform="rotate(-35 537.8,386)">1500-1750</text>
<rect class="blue" x="581.6" y="322.7" width="55.9" height="31.3" rx="3"/>
<text x="609.5" y="316.7" font-size="11" text-anchor="middle">42</text>
<text class="muted" x="609.5" y="386" font-size="10" text-anchor="middle" transform="rotate(-35 609.5,386)">1750-2000</text>
<rect class="blue" x="653.2" y="341.3" width="55.9" height="12.7" rx="3"/>
<text x="681.2" y="335.3" font-size="11" text-anchor="middle">17</text>
<text class="muted" x="681.2" y="386" font-size="10" text-anchor="middle" transform="rotate(-35 681.2,386)">2000-2250</text>
<rect class="blue" x="724.9" y="346.5" width="55.9" height="7.5" rx="3"/>
<text x="752.8" y="340.5" font-size="11" text-anchor="middle">10</text>
<text class="muted" x="752.8" y="386" font-size="10" text-anchor="middle" transform="rotate(-35 752.8,386)">2250-2500</text>
<rect class="blue" x="796.5" y="350.3" width="55.9" height="3.7" rx="3"/>
<text x="824.5" y="344.3" font-size="11" text-anchor="middle">5</text>
<text class="muted" x="824.5" y="386" font-size="10" text-anchor="middle" transform="rotate(-35 824.5,386)">2500-2750</text>
<rect class="blue" x="868.2" y="354.0" width="55.9" height="0.0" rx="3"/>
<text class="muted" x="896.2" y="386" font-size="10" text-anchor="middle" transform="rotate(-35 896.2,386)">2750-3000</text>
<text class="muted" x="480.0" y="410" font-size="13" text-anchor="middle">响应时间区间（毫秒）</text>
</svg>
